<svg xmlns="http://www.w3.org/2000/svg" xmlns:xlink="http://www.w3.org/1999/xlink" width="528" zoomAndPan="magnify" viewBox="0 0 396 86.249997" height="115" preserveAspectRatio="xMidYMid meet" version="1.0"><defs><g/></defs><g fill="#000000" fill-opacity="1"><g transform="translate(2.578232, 66.620683)"><g><path d="M 29.90625 -50.09375 L 48.65625 -50.09375 L 48.65625 -23.328125 C 48.65625 -19.179688 47.972656 -15.566406 46.609375 -12.484375 C 45.253906 -9.410156 43.441406 -6.832031 41.171875 -4.75 C 38.910156 -2.675781 36.359375 -1.125 33.515625 -0.09375 C 30.679688 0.925781 27.765625 1.4375 24.765625 1.4375 C 21.753906 1.4375 18.828125 0.925781 15.984375 -0.09375 C 13.148438 -1.125 10.597656 -2.675781 8.328125 -4.75 C 6.066406 -6.832031 4.253906 -9.410156 2.890625 -12.484375 C 1.535156 -15.566406 0.859375 -19.179688 0.859375 -23.328125 L 0.859375 -50.09375 L 19.46875 -50.09375 L 19.46875 -23.328125 C 19.46875 -21.328125 20.015625 -19.820312 21.109375 -18.8125 C 22.203125 -17.8125 23.394531 -17.3125 24.6875 -17.3125 C 26.019531 -17.3125 27.222656 -17.8125 28.296875 -18.8125 C 29.367188 -19.820312 29.90625 -21.328125 29.90625 -23.328125 Z M 29.90625 -50.09375 "/></g></g></g><g fill="#000000" fill-opacity="1"><g transform="translate(52.093273, 66.620683)"><g><path d="M 23.046875 -50.09375 C 27.148438 -50.09375 30.8125 -49.578125 34.03125 -48.546875 C 37.25 -47.523438 39.773438 -45.914062 41.609375 -43.71875 C 43.453125 -41.53125 44.375 -38.671875 44.375 -35.140625 C 44.375 -33.515625 44.0625 -31.925781 43.4375 -30.375 C 42.820312 -28.820312 41.84375 -27.5 40.5 -26.40625 C 42.84375 -25.351562 44.5625 -23.8125 45.65625 -21.78125 C 46.75 -19.757812 47.296875 -17.601562 47.296875 -15.3125 C 47.296875 -11.632812 46.363281 -8.660156 44.5 -6.390625 C 42.644531 -4.128906 40.035156 -2.5 36.671875 -1.5 C 33.304688 -0.5 29.359375 0 24.828125 0 L 0.71875 0 L 0.71875 -50.09375 Z M 24.546875 -32.0625 C 25.691406 -32.0625 26.535156 -32.332031 27.078125 -32.875 C 27.628906 -33.425781 27.90625 -34.046875 27.90625 -34.734375 C 27.90625 -35.429688 27.628906 -36.050781 27.078125 -36.59375 C 26.535156 -37.144531 25.691406 -37.421875 24.546875 -37.421875 L 19.328125 -37.421875 L 19.328125 -13.671875 L 25.1875 -13.671875 C 26.382812 -13.671875 27.269531 -13.957031 27.84375 -14.53125 C 28.414062 -15.101562 28.703125 -15.757812 28.703125 -16.5 C 28.703125 -17.238281 28.398438 -17.894531 27.796875 -18.46875 C 27.203125 -19.039062 26.3125 -19.328125 25.125 -19.328125 L 20.53125 -19.328125 L 20.53125 -32.0625 Z M 24.546875 -32.0625 "/></g></g></g><g fill="#000000" fill-opacity="1"><g transform="translate(99.962591, 66.620683)"><g><path d="M 0.71875 0 L 0.71875 -50.09375 L 19.328125 -50.09375 L 19.328125 0 Z M 0.71875 0 "/></g></g></g><g fill="#000000" fill-opacity="1"><g transform="translate(119.997585, 66.620683)"><g><path d="M 19.828125 -25.125 C 19.828125 -23.113281 20.503906 -21.425781 21.859375 -20.0625 C 23.222656 -18.707031 24.90625 -18.03125 26.90625 -18.03125 C 28.8125 -18.03125 30.429688 -18.640625 31.765625 -19.859375 C 33.109375 -21.078125 33.851562 -22.613281 34 -24.46875 L 53.3125 -24.46875 C 53.269531 -20.894531 52.539062 -17.546875 51.125 -14.421875 C 49.71875 -11.296875 47.8125 -8.539062 45.40625 -6.15625 C 43 -3.769531 40.21875 -1.90625 37.0625 -0.5625 C 33.914062 0.769531 30.554688 1.4375 26.984375 1.4375 C 23.359375 1.4375 19.945312 0.742188 16.75 -0.640625 C 13.550781 -2.023438 10.734375 -3.929688 8.296875 -6.359375 C 5.867188 -8.796875 3.972656 -11.613281 2.609375 -14.8125 C 1.253906 -18.007812 0.578125 -21.421875 0.578125 -25.046875 C 0.578125 -28.722656 1.253906 -32.15625 2.609375 -35.34375 C 3.972656 -38.539062 5.867188 -41.34375 8.296875 -43.75 C 10.734375 -46.164062 13.550781 -48.066406 16.75 -49.453125 C 19.945312 -50.835938 23.359375 -51.53125 26.984375 -51.53125 C 30.554688 -51.53125 33.914062 -50.859375 37.0625 -49.515625 C 40.21875 -48.179688 43 -46.332031 45.40625 -43.96875 C 47.8125 -41.613281 49.71875 -38.875 51.125 -35.75 C 52.539062 -32.625 53.269531 -29.269531 53.3125 -25.6875 L 34.0625 -25.6875 C 33.914062 -27.550781 33.160156 -29.113281 31.796875 -30.375 C 30.441406 -31.644531 28.8125 -32.28125 26.90625 -32.28125 C 24.90625 -32.28125 23.222656 -31.585938 21.859375 -30.203125 C 20.503906 -28.816406 19.828125 -27.125 19.828125 -25.125 Z M 19.828125 -25.125 "/></g></g></g><g fill="#000000" fill-opacity="1"><g transform="translate(174.020496, 66.620683)"><g><path d="M 41.9375 -50.09375 L 61.90625 0 L 41.9375 0 L 30.703125 -31.125 L 25.328125 -16.671875 L 34.5625 -16.671875 L 40.578125 0 L -0.140625 0 L 19.46875 -50.09375 Z M 41.9375 -50.09375 "/></g></g></g><g fill="#000000" fill-opacity="1"><g transform="translate(235.842736, 66.620683)"><g><path d="M 0.71875 0 L 0.71875 -50.09375 L 24.46875 -50.09375 C 28.53125 -50.09375 32.070312 -49.390625 35.09375 -47.984375 C 38.125 -46.578125 40.65625 -44.679688 42.6875 -42.296875 C 44.71875 -39.910156 46.234375 -37.222656 47.234375 -34.234375 C 48.234375 -31.253906 48.734375 -28.191406 48.734375 -25.046875 C 48.734375 -21.898438 48.234375 -18.832031 47.234375 -15.84375 C 46.234375 -12.863281 44.71875 -10.179688 42.6875 -7.796875 C 40.65625 -5.410156 38.125 -3.515625 35.09375 -2.109375 C 32.070312 -0.703125 28.53125 0 24.46875 0 Z M 24.828125 -19.390625 C 26.117188 -19.390625 27.144531 -19.78125 27.90625 -20.5625 C 28.664062 -21.351562 29.175781 -22.3125 29.4375 -23.4375 C 29.707031 -24.5625 29.707031 -25.691406 29.4375 -26.828125 C 29.175781 -27.972656 28.664062 -28.941406 27.90625 -29.734375 C 27.144531 -30.523438 26.117188 -30.921875 24.828125 -30.921875 L 19.25 -30.921875 L 19.25 -19.390625 Z M 24.828125 -19.390625 "/></g></g></g><g fill="#000000" fill-opacity="1"><g transform="translate(285.286233, 66.620683)"><g><path d="M 28.125 1.4375 C 24.351562 1.4375 20.8125 0.742188 17.5 -0.640625 C 14.1875 -2.023438 11.273438 -3.921875 8.765625 -6.328125 C 6.265625 -8.742188 4.296875 -11.5625 2.859375 -14.78125 C 1.429688 -18 0.71875 -21.421875 0.71875 -25.046875 C 0.71875 -28.722656 1.429688 -32.15625 2.859375 -35.34375 C 4.296875 -38.539062 6.265625 -41.34375 8.765625 -43.75 C 11.273438 -46.164062 14.1875 -48.066406 17.5 -49.453125 C 20.8125 -50.835938 24.351562 -51.53125 28.125 -51.53125 C 31.894531 -51.53125 35.4375 -50.835938 38.75 -49.453125 C 42.0625 -48.066406 44.96875 -46.164062 47.46875 -43.75 C 49.976562 -41.34375 51.9375 -38.539062 53.34375 -35.34375 C 54.757812 -32.15625 55.46875 -28.722656 55.46875 -25.046875 C 55.46875 -21.421875 54.757812 -18 53.34375 -14.78125 C 51.9375 -11.5625 49.976562 -8.742188 47.46875 -6.328125 C 44.96875 -3.921875 42.0625 -2.023438 38.75 -0.640625 C 35.4375 0.742188 31.894531 1.4375 28.125 1.4375 Z M 20.96875 -25.046875 C 20.96875 -23.085938 21.660156 -21.414062 23.046875 -20.03125 C 24.429688 -18.65625 26.097656 -17.96875 28.046875 -17.96875 C 30.003906 -17.96875 31.6875 -18.65625 33.09375 -20.03125 C 34.5 -21.414062 35.203125 -23.085938 35.203125 -25.046875 C 35.203125 -27.003906 34.5 -28.6875 33.09375 -30.09375 C 31.6875 -31.5 30.003906 -32.203125 28.046875 -32.203125 C 26.097656 -32.203125 24.429688 -31.5 23.046875 -30.09375 C 21.660156 -28.6875 20.96875 -27.003906 20.96875 -25.046875 Z M 20.96875 -25.046875 "/></g></g></g><g fill="#000000" fill-opacity="1"><g transform="translate(341.527325, 66.620683)"><g><path d="M 0.78125 0 L 0.78125 -18.828125 L 11.234375 -18.828125 L 10.453125 -20.03125 L 5.15625 -20.03125 C 3.53125 -21.5625 2.382812 -23.390625 1.71875 -25.515625 C 1.050781 -27.640625 0.71875 -29.773438 0.71875 -31.921875 C 0.71875 -38.304688 2.632812 -42.929688 6.46875 -45.796875 C 10.3125 -48.660156 16.265625 -50.09375 24.328125 -50.09375 L 51.234375 -50.09375 L 51.234375 -31.125 L 27.046875 -31.125 C 25.328125 -31.125 23.929688 -30.707031 22.859375 -29.875 C 21.785156 -29.039062 21.046875 -28.015625 20.640625 -26.796875 C 20.234375 -25.578125 20.1875 -24.347656 20.5 -23.109375 C 20.8125 -21.867188 21.503906 -20.832031 22.578125 -20 C 23.648438 -19.164062 25.117188 -18.75 26.984375 -18.75 C 28.890625 -18.75 30.316406 -19.25 31.265625 -20.25 C 32.222656 -21.25 32.722656 -22.425781 32.765625 -23.78125 C 32.816406 -25.144531 32.472656 -26.421875 31.734375 -27.609375 C 30.992188 -28.804688 29.910156 -29.570312 28.484375 -29.90625 L 45.4375 -29.90625 C 47.582031 -28.289062 49.144531 -26.347656 50.125 -24.078125 C 51.101562 -21.816406 51.59375 -19.492188 51.59375 -17.109375 C 51.59375 -12.804688 50.648438 -9.414062 48.765625 -6.9375 C 46.878906 -4.457031 44.21875 -2.679688 40.78125 -1.609375 C 37.351562 -0.535156 33.253906 0 28.484375 0 Z M 0.78125 0 "/></g></g></g></svg>