<svg xmlns="http://www.w3.org/2000/svg" width="528" height="115" version="1.0" viewBox="0 0 396 86.25"><path d="M48.612 73.315h-11.61c-.742 0-1.109-.368-1.109-1.11V29.752c0-.738.367-1.11 1.11-1.11.8 0 1.203.372 1.203 1.11v41.25h9.297v-43.39c0-1.958-.344-3.16-1.032-3.61-.687-.457-1.59-.687-2.703-.687H27.784c-.742 0-1.11-.368-1.11-1.11v-11.36c0-.75.368-1.124 1.11-1.124h30.281c.8 0 1.203.375 1.203 1.125V22.44c0 .75-.402 1.125-1.203 1.125h-2.937c-.793 0-1.188-.375-1.188-1.125 0-.739.395-1.11 1.188-1.11h1.828v-9.297h-27.97v8.985h14.782a8.98 8.98 0 0 1 2.766.437c.906.293 1.66.903 2.265 1.828.614.93.922 2.371.922 4.328v44.594c0 .742-.37 1.11-1.11 1.11Zm62.469-1.438-.047.406c-.023.262-.086.446-.187.547-.211.324-.5.485-.875.485H98.128a.405.405 0 0 1-.281-.11c-.086-.082-.152-.125-.203-.125a.923.923 0 0 1-.235-.406c0-.05-.027-.102-.078-.156-.054-.051-.078-.102-.078-.157l-1.672-8.75-.64-3.484h-5c-.743 0-1.11-.398-1.11-1.203 0-.738.367-1.11 1.11-1.11h5.875c.27-.05.535.016.797.204.27.187.43.437.484.75l.719 4.375 1.5 7.86h9.218L103.3 49.314l-8.984-37.282h-10.5l-8.89 37.282-5.173 21.687h9.297l3.188-17.484c.312-1.75.914-3.125 1.812-4.125.906-1.008 2.523-1.516 4.86-1.516h3.812l-3.578-19.234-2.469 13.437c-.156.742-.605 1.031-1.344.875-.793-.156-1.11-.582-.953-1.281l3.578-19.547c.102-.582.5-.875 1.188-.875.633 0 .976.293 1.031.875l5.016 26.625v.563c0 .054-.043.12-.125.203-.086.074-.125.136-.125.187-.055.106-.184.215-.39.328-.157.106-.29.157-.392.157h-5.015s-.028-.008-.078-.032a.755.755 0 0 1-.078-.047l-.047.047-.032.032c-1.593 0-2.683.265-3.265.796-.586.524-.98 1.528-1.188 3.016l-3.422 18.36a.291.291 0 0 1-.046.156.385.385 0 0 0-.032.156c-.054.219-.156.355-.312.406-.156.156-.293.235-.406.235h-12c-.368 0-.657-.16-.875-.485-.211-.258-.286-.578-.235-.953l5.563-23.125 9.14-38.156c.157-.582.524-.875 1.11-.875h12.328c.531 0 .875.293 1.031.875l9.219 38.156Zm33.464 1.438h-26.078c-.742 0-1.11-.368-1.11-1.11 0-.8.368-1.203 1.11-1.203h24.875v-8.969h-19.938c-.96 0-1.902-.144-2.828-.437-.93-.29-1.699-.899-2.312-1.828-.606-.926-.906-2.375-.906-4.344V10.846c0-.75.367-1.125 1.109-1.125h11.687c.739 0 1.11.375 1.11 1.125l.078 42.594c0 .804-.371 1.203-1.11 1.203-.792 0-1.187-.399-1.187-1.203l-.078-41.407h-9.297v43.391c0 1.969.328 3.18.984 3.625.665.45 1.582.672 2.75.672h21.141c.738 0 1.11.37 1.11 1.11v11.374c0 .742-.372 1.11-1.11 1.11Zm40.055 0h-29.892c-.742 0-1.109-.368-1.109-1.11V51.861c0-1.863.66-3.468 1.984-4.812 1.32-1.352 2.938-2.055 4.844-2.11h18.844v-7.953h-12.719c-.742 0-1.11-.367-1.11-1.109V21.643c0-.79.368-1.188 1.11-1.188h16.938v-8.422h-27.578v29.25c0 .688-.403 1.032-1.204 1.032-.742 0-1.109-.344-1.109-1.032V10.846c0-.75.367-1.125 1.11-1.125h29.89c.79 0 1.188.375 1.188 1.125v10.797c0 .75-.399 1.125-1.188 1.125h-16.86V34.69h12.641c.75 0 1.125.398 1.125 1.187v10.25c0 .688-.375 1.031-1.125 1.031h-19.625c-1.375 0-2.527.48-3.453 1.438-.93.96-1.39 2.074-1.39 3.344v19.062h27.578V62.58h-16.938c-.742 0-1.11-.394-1.11-1.187v-7.875c0-.739.368-1.11 1.11-1.11.79 0 1.188.371 1.188 1.11v6.765h16.86c.788 0 1.187.371 1.187 1.11v10.812c0 .742-.399 1.11-1.188 1.11Zm19.227-61.282h-7.86v58.97h9.532V32.86c0-.101.024-.238.078-.406a.875.875 0 0 1 .313-.312.837.837 0 0 0 .25-.157c.05-.05.101-.078.156-.078h.469c.113 0 .25.055.406.157a.48.48 0 0 1 .313.312l.156.078 17.656 33.703 1.266 1.985c.582.96 1.27 1.68 2.062 2.156.8.469 2.102.703 3.906.703h3.97c.737 0 1.109.402 1.109 1.203 0 .742-.372 1.11-1.11 1.11h-3.969c-1.918 0-3.5-.301-4.75-.907-1.242-.613-2.308-1.632-3.203-3.062l-1.281-1.906v-.094l-15.5-29.719v34.578c0 .742-.398 1.11-1.187 1.11h-11.844c-.313 0-.578-.102-.797-.313a1.102 1.102 0 0 1-.313-.797v-61.36c0-.75.368-1.124 1.11-1.124h9.062c2.07 0 3.649.43 4.735 1.281 1.082.844 2.047 1.984 2.89 3.422l23.938 43.312V12.033h-9.938v13.36c0 .742-.37 1.11-1.11 1.11-.804 0-1.202-.368-1.202-1.11V10.846c0-.75.398-1.125 1.203-1.125h12.156c.738 0 1.11.375 1.11 1.125v51.5c0 .105-.055.234-.157.39a.472.472 0 0 1-.312.329c-.055.054-.11.105-.172.156-.055.055-.133.078-.234.078h-.313a.897.897 0 0 1-.484-.156c-.211-.102-.34-.207-.391-.313l-.078-.172-26-47.125c-.688-1.27-1.418-2.172-2.188-2.703-.761-.531-1.914-.797-3.453-.797Zm63.585 61.282h-11.61c-.742 0-1.109-.368-1.109-1.11V29.752c0-.738.367-1.11 1.11-1.11.8 0 1.203.372 1.203 1.11v41.25h9.296v-43.39c0-1.958-.343-3.16-1.03-3.61-.688-.457-1.59-.687-2.704-.687h-15.984c-.742 0-1.11-.368-1.11-1.11v-11.36c0-.75.368-1.124 1.11-1.124h30.281c.8 0 1.203.375 1.203 1.125V22.44c0 .75-.402 1.125-1.203 1.125h-2.938c-.792 0-1.187-.375-1.187-1.125 0-.739.395-1.11 1.187-1.11h1.829v-9.297h-27.97v8.985h14.782a8.98 8.98 0 0 1 2.766.437c.906.293 1.66.903 2.265 1.828.614.93.922 2.371.922 4.328v44.594c0 .742-.37 1.11-1.11 1.11Zm41.719.953h-.156c-1.906 0-3.484-.32-4.734-.953-1.243-.633-2.196-1.426-2.86-2.375-.656-.957-1.148-1.91-1.469-2.86a34.398 34.398 0 0 1-.703-2.39l-.093-.485c-.262-1.219-.446-2.953-.547-5.203-.106-2.25-.157-4.644-.157-7.187 0-2.551.024-4.86.079-6.922v-3.5c0-4.239.062-7.895.187-10.969.133-3.07.492-5.375 1.078-6.906 1.063-3.188 2.785-4.782 5.172-4.782 1.477 0 2.64.375 3.484 1.125.852.743 1.57 1.985 2.157 3.735.375 1.273.64 2.945.797 5.015.156 2.063.242 4.157.265 6.282.031 2.117.047 3.86.047 5.234v2.703c0 1.324-.016 2.836-.047 4.531a99.051 99.051 0 0 1-.187 4.922c-.106 1.594-.242 2.918-.407 3.97a19.44 19.44 0 0 1-.953 3.343c-.418 1.117-1.183 1.965-2.297 2.547-.687.312-1.195.125-1.515-.563-.313-.738-.153-1.238.484-1.5 1-.531 1.66-1.937 1.985-4.219.156-1.007.285-2.332.39-3.968.113-1.645.18-3.317.203-5.016.032-1.695.055-3.164.078-4.406.032-1.25.047-2.031.047-2.344 0-1.219-.015-2.848-.047-4.89a89.347 89.347 0 0 0-.28-6.126c-.157-2.039-.419-3.644-.782-4.812-.375-1.375-.828-2.242-1.36-2.61-.53-.374-1.218-.562-2.062-.562-.48 0-.984.172-1.516.516-.53.343-1.039 1.203-1.515 2.578-.524 1.492-.852 3.824-.985 7-.136 3.18-.203 6.57-.203 10.172v3.5a261.053 261.053 0 0 0-.078 6.843c0 2.493.051 4.825.156 7 .102 2.168.29 3.836.563 5l.156.391c.207.906.508 1.89.906 2.953.407 1.055 1.125 1.95 2.157 2.688 1.031.742 2.55 1.11 4.562 1.11h.172c2.32 0 4.29-.884 5.906-2.657 1.625-1.77 2.926-4.125 3.907-7.063.976-2.945 1.691-6.156 2.14-9.625a81.25 81.25 0 0 0 .672-10.375c0-10.539-1.367-18.343-4.094-23.406-2.73-5.062-6.953-7.594-12.672-7.594-5.773 0-10.039 2.43-12.796 7.282-2.75 4.843-4.125 12.382-4.125 22.609 0 11.074 1.535 19.367 4.609 24.875.102.105.258.328.469.672.207.344.472.73.797 1.156.207.211.296.477.265.797a1.259 1.259 0 0 1-.344.797c-.273.21-.57.305-.89.281-.313-.031-.547-.148-.703-.36a15.25 15.25 0 0 1-1-1.359 14.27 14.27 0 0 0-.516-.797c-1.687-2.968-2.945-6.57-3.766-10.812-.824-4.238-1.234-9.32-1.234-15.25 0-10.863 1.586-18.957 4.766-24.281 3.175-5.332 8-8 14.468-8 3.446 0 6.305.695 8.579 2.078 2.28 1.375 4.125 3.23 5.53 5.562 1.407 2.336 2.462 4.946 3.173 7.828a54.783 54.783 0 0 1 1.437 8.985c.238 3.094.36 6.074.36 8.937a83.67 83.67 0 0 1-.797 11.532c-.532 3.812-1.399 7.273-2.594 10.375-1.188 3.093-2.734 5.57-4.64 7.421-1.907 1.852-4.266 2.782-7.079 2.782Zm41.021-.953c-3.398 0-6.168-.567-8.312-1.704-2.149-1.144-3.856-2.578-5.125-4.296-1.274-1.72-2.242-3.504-2.906-5.36-.657-1.851-1.172-3.5-1.547-4.937l-.078-.235c-.157-.632.082-1.086.718-1.359l9.532-3.813c.27-.101.586-.078.953.079.32.117.508.382.562.796.364 1.75.848 3.329 1.453 4.735.614 1.406 1.664 2.344 3.157 2.812 1.644.48 3.02.274 4.125-.625 1.28-.957 1.922-2.363 1.922-4.218 0-1.645-.403-2.875-1.204-3.688a10.15 10.15 0 0 0-2.78-2.031c-.638-.32-.794-.828-.47-1.516.258-.687.758-.867 1.5-.547 1.22.637 2.395 1.524 3.532 2.657 1.144 1.136 1.718 2.843 1.718 5.125 0 2.593-.953 4.609-2.859 6.046-1.7 1.325-3.742 1.668-6.125 1.032-1.96-.582-3.352-1.692-4.172-3.328-.824-1.645-1.418-3.188-1.781-4.625l-7.234 2.937c.363 1.336.863 2.797 1.5 4.39a19.474 19.474 0 0 0 2.578 4.532c1.093 1.43 2.55 2.59 4.375 3.484 1.832.899 4.156 1.344 6.968 1.344 3.282 0 6.086-.55 8.422-1.656 2.332-1.113 4.196-2.942 5.594-5.485 1.406-2.55 2.055-5.304 1.953-8.265-.105-2.707-.808-5.067-2.11-7.078-1.292-2.008-3.054-3.442-5.28-4.297a31.38 31.38 0 0 0-3.657-1.235 128.46 128.46 0 0 0-3.89-.984 72.874 72.874 0 0 1-7.313-1.953c-2.387-.77-4.453-1.988-6.203-3.656-1.75-1.664-2.918-4.086-3.5-7.266-.586-3.133-.437-5.8.438-8 .875-2.195 1.816-3.93 2.828-5.203 1.632-1.957 3.644-3.477 6.03-4.563a17.743 17.743 0 0 1 7.485-1.64c4.125 0 7.617 1.234 10.485 3.703 2.863 2.46 4.93 5.996 6.203 10.61.156.585-.059 1.038-.64 1.359l-8.907 4.203a1.475 1.475 0 0 1-.953 0c-.313-.156-.524-.422-.625-.797a14.64 14.64 0 0 0-1.125-3.375c-.524-1.133-1.34-1.941-2.453-2.422-1.012-.426-1.996-.426-2.953 0-.95.43-1.688 1.14-2.22 2.14-.585 1.22-.702 2.43-.359 3.626.344 1.187 1.098 2.21 2.266 3.062.633.469.738.996.313 1.578-.211.22-.477.356-.797.407a1.21 1.21 0 0 1-.86-.157c-1.648-1.164-2.71-2.625-3.187-4.375-.48-1.75-.293-3.445.562-5.093.739-1.582 1.89-2.676 3.453-3.282 1.563-.613 3.114-.601 4.657.032 1.32.53 2.328 1.355 3.015 2.468a14.833 14.833 0 0 1 1.594 3.485l6.75-3.172c-.586-1.852-1.434-3.68-2.547-5.485-1.117-1.8-2.617-3.285-4.5-4.453-1.875-1.164-4.265-1.75-7.172-1.75-2.281 0-4.46.465-6.531 1.391-2.062.93-3.781 2.242-5.156 3.937-.906 1.055-1.73 2.524-2.469 4.407-.742 1.886-.844 4.18-.312 6.875.468 2.71 1.457 4.765 2.968 6.172 1.508 1.398 3.336 2.437 5.485 3.125a77.247 77.247 0 0 0 6.797 1.828c1.332.324 2.671.656 4.015 1a37.84 37.84 0 0 1 3.938 1.234c2.593 1.055 4.672 2.774 6.234 5.156 1.57 2.387 2.41 5.172 2.516 8.36.101 3.437-.653 6.633-2.266 9.578-1.617 2.937-3.805 5.07-6.562 6.39a16.448 16.448 0 0 1-5.22 1.516c-1.823.211-3.234.313-4.234.313Zm0 0"/></svg>